HIERARCHY
ROOT joint_Root
{
	OFFSET 0.0 0.0 0.0
	CHANNELS 6 Xposition Yposition Zposition Zrotation Xrotation Yrotation 
	JOINT Hips
	{
		OFFSET 4.5925 91.4895 -427.239
		CHANNELS 6 Xposition Yposition Zposition Zrotation Xrotation Yrotation 
		JOINT Spine
		{
			OFFSET 15.7357 0.0 0.0
			CHANNELS 6 Xposition Yposition Zposition Zrotation Xrotation Yrotation 
			JOINT Chest
			{
				OFFSET 8.98455 -0.406207 0.0
				CHANNELS 6 Xposition Yposition Zposition Zrotation Xrotation Yrotation 
				JOINT Neck
				{
					OFFSET 16.3773 0.0 0.0
					CHANNELS 6 Xposition Yposition Zposition Zrotation Xrotation Yrotation 
					JOINT Head
					{
						OFFSET 6.45672 0.0 0.0
						CHANNELS 6 Xposition Yposition Zposition Zrotation Xrotation Yrotation 
						End Site
						{
							OFFSET 0.0 0.0 0.0
						}
					}
				}
				JOINT Shoulder_L
				{
					OFFSET 12.9942 -0.242716 4.98039
					CHANNELS 6 Xposition Yposition Zposition Zrotation Xrotation Yrotation 
					JOINT UpperArm_L
					{
						OFFSET 5.34809 0.0 0.0
						CHANNELS 6 Xposition Yposition Zposition Zrotation Xrotation Yrotation 
						JOINT LowerArm_L
						{
							OFFSET 24.3286 1.87007e-05 0.0
							CHANNELS 6 Xposition Yposition Zposition Zrotation Xrotation Yrotation 
							JOINT Hand_L
							{
								OFFSET 22.2916 0.0 0.0
								CHANNELS 6 Xposition Yposition Zposition Zrotation Xrotation Yrotation 
								End Site
								{
									OFFSET 0.0 0.0 0.0
								}
							}
						}
					}
				}
				JOINT Shoulder_R
				{
					OFFSET 12.9945 -0.242716 -4.98039
					CHANNELS 6 Xposition Yposition Zposition Zrotation Xrotation Yrotation 
					JOINT UpperArm_R
					{
						OFFSET -5.34813 0.0 0.0
						CHANNELS 6 Xposition Yposition Zposition Zrotation Xrotation Yrotation 
						JOINT LowerArm_R
						{
							OFFSET -24.3289 0.000322201 0.0
							CHANNELS 6 Xposition Yposition Zposition Zrotation Xrotation Yrotation 
							JOINT Hand_R
							{
								OFFSET -22.2915 -0.000108084 0.0
								CHANNELS 6 Xposition Yposition Zposition Zrotation Xrotation Yrotation 
								End Site
								{
									OFFSET 0.0 0.0 0.0
								}
							}
						}
					}
				}
			}
		}
		JOINT UpperLeg_L
		{
			OFFSET -2.19248 -6.46944 0.0
			CHANNELS 6 Xposition Yposition Zposition Zrotation Xrotation Yrotation 
			JOINT LowerLeg_L
			{
				OFFSET 39.0811 0.0 -1.23785e-05
				CHANNELS 6 Xposition Yposition Zposition Zrotation Xrotation Yrotation 
				JOINT Foot_L
				{
					OFFSET 40.9854 0.0 -1.26872e-05
					CHANNELS 6 Xposition Yposition Zposition Zrotation Xrotation Yrotation 
					JOINT Toes_L
					{
						OFFSET 11.7543 0.0 0.0
						CHANNELS 6 Xposition Yposition Zposition Zrotation Xrotation Yrotation 
						End Site
						{
							OFFSET 0.0 0.0 0.0
						}
					}
				}
			}
		}
		JOINT UpperLeg_R
		{
			OFFSET -2.19251 6.46944 0.0
			CHANNELS 6 Xposition Yposition Zposition Zrotation Xrotation Yrotation 
			JOINT LowerLeg_R
			{
				OFFSET -39.0811 -0.00228153 -0.0401928
				CHANNELS 6 Xposition Yposition Zposition Zrotation Xrotation Yrotation 
				JOINT Foot_R
				{
					OFFSET -40.9854 0.0 0.0
					CHANNELS 6 Xposition Yposition Zposition Zrotation Xrotation Yrotation 
					JOINT Toes_R
					{
						OFFSET -11.7543 0.0 0.0
						CHANNELS 6 Xposition Yposition Zposition Zrotation Xrotation Yrotation 
						End Site
						{
							OFFSET 0.0 0.0 0.0
						}
					}
				}
			}
		}
	}
}
MOTION
Frames:	6
Frame Time:	0.0333333
0.000000 0.000000 0.000000 0.000000 0.000000 -0.000000 -3.926420 91.410900 1.418060 88.709100 4.240740 2.784040 15.735700 0.000005 -0.000001 98.071100 85.877700 -101.394000 8.984550 -0.406207 -0.000000 0.445460 1.369240 -6.647420 16.377300 -0.000001 -0.000001 6.004270 -3.709930 3.576770 6.456720 -0.000001 -0.000000 -0.318126 -0.079563 -9.479950 12.994200 -0.242716 4.980390 -91.526400 3.844960 -68.328900 5.348090 -0.000007 -0.000001 -64.311600 22.665800 -7.297320 24.328600 0.000019 0.000005 7.689070 21.000300 -20.643100 22.291600 -0.000001 0.000005 14.113900 5.147710 3.997960 12.994500 -0.242716 -4.980390 94.072800 -10.154100 -68.006900 -5.348130 -0.000001 -0.000004 -63.262000 -62.461700 -106.152000 -24.328900 0.000322 -0.000009 -5.229680 -4.664790 -48.370500 -22.291500 -0.000108 -0.000004 17.342000 5.465380 -5.199340 -2.192480 -6.469440 -0.000000 -172.733000 -9.615550 -5.565000 39.081100 -0.000007 -0.000012 -0.208024 0.414967 26.625000 40.985400 -0.000006 -0.000013 -1.589940 9.726760 -68.179100 11.754300 -0.000000 0.000003 -0.000268 -0.002364 -16.666000 -2.192510 6.469440 -0.000001 178.886000 27.431100 177.422000 -39.081100 -0.002282 -0.040193 -0.045022 0.102232 25.304000 -40.985400 0.000008 0.000006 6.911940 11.875600 -70.903000 -11.754300 -0.000006 -0.000006 -0.002591 -0.035881 -18.032200
0.000000 0.000000 0.000000 0.000000 0.000000 -0.000000 -3.675490 91.431800 1.433990 88.794400 4.042660 2.767900 15.735700 0.000005 -0.000001 97.217200 85.846800 -100.394000 8.984550 -0.406207 -0.000000 0.517168 1.243930 -6.354130 16.377300 -0.000001 -0.000001 5.990960 -3.700210 3.605330 6.456720 -0.000001 -0.000000 -0.260065 -0.043053 -9.240090 12.994200 -0.242716 4.980390 -91.607600 4.049850 -68.328200 5.348090 -0.000007 -0.000001 -64.029300 23.275000 -7.701520 24.328600 0.000019 0.000005 7.847100 20.172200 -21.784700 22.291600 -0.000001 0.000005 14.341500 5.153460 3.860410 12.994500 -0.242716 -4.980390 93.793300 -9.585500 -68.289200 -5.348130 -0.000001 -0.000004 -60.668700 -61.827600 -101.393000 -24.328900 0.000322 -0.000009 -6.022700 -4.673500 -52.316000 -22.291500 -0.000108 -0.000004 18.080500 5.461490 -5.055250 -2.192480 -6.469440 -0.000000 -172.934000 -10.248000 -5.451170 39.081100 -0.000007 -0.000012 -0.204537 0.409638 26.533700 40.985400 -0.000006 -0.000013 -1.324780 10.059400 -68.194700 11.754300 -0.000000 0.000003 -0.000260 -0.002311 -16.664000 -2.192510 6.469440 -0.000001 178.566000 27.471700 177.456000 -39.081100 -0.002282 -0.040193 -0.049301 0.111405 25.279600 -40.985400 0.000008 0.000006 6.750250 12.184700 -70.839000 -11.754300 -0.000006 -0.000006 -0.002556 -0.035478 -18.015800
0.000000 0.000000 0.000000 0.000000 0.000000 -0.000000 -3.408590 91.434100 1.472960 88.875300 3.725130 2.830940 15.735700 0.000005 -0.000001 96.366400 85.770400 -99.409800 8.984550 -0.406207 -0.000000 0.678330 1.125730 -6.089030 16.377300 -0.000001 -0.000001 5.833440 -3.629540 3.580610 6.456720 -0.000001 -0.000000 -0.124730 -0.090957 -8.981960 12.994200 -0.242716 4.980390 -91.689400 4.251890 -68.307600 5.348090 -0.000007 -0.000001 -63.582900 24.173000 -8.485210 24.328600 0.000019 0.000005 7.862520 19.602700 -22.372600 22.291600 -0.000001 0.000005 14.508400 5.158900 3.729420 12.994500 -0.242716 -4.980390 93.344800 -8.679180 -68.828700 -5.348130 -0.000001 -0.000004 -57.511100 -60.620300 -94.920800 -24.328900 0.000322 -0.000009 -6.367210 -3.981220 -58.107600 -22.291500 -0.000108 -0.000004 18.559800 5.462210 -5.082140 -2.192480 -6.469440 -0.000000 -173.142000 -10.732300 -5.269620 39.081100 -0.000007 -0.000012 -0.200457 0.401435 26.535500 40.985400 -0.000006 -0.000013 -1.094830 10.170000 -68.296200 11.754300 -0.000000 0.000003 -0.000259 -0.002297 -16.663500 -2.192510 6.469440 -0.000001 178.165000 27.495800 177.549000 -39.081100 -0.002282 -0.040193 -0.060806 0.135391 25.340800 -40.985400 0.000008 0.000006 6.466480 12.624500 -70.791300 -11.754300 -0.000006 -0.000006 -0.002599 -0.035975 -18.036000
0.000000 0.000000 0.000000 0.000000 0.000000 -0.000000 -3.136670 91.429700 1.495780 88.921600 3.342180 2.929130 15.735700 0.000005 -0.000001 95.808600 85.688900 -98.720400 8.984550 -0.406207 -0.000000 0.845464 1.047980 -5.826890 16.377300 -0.000001 -0.000001 5.632180 -3.460050 3.306610 6.456720 -0.000001 -0.000000 -0.014469 -0.321517 -8.528750 12.994200 -0.242716 4.980390 -91.755500 4.386450 -68.162800 5.348090 -0.000007 -0.000001 -63.016400 25.428200 -9.769950 24.328600 0.000019 0.000005 7.770030 19.615000 -22.120000 22.291600 -0.000001 0.000005 14.358200 5.165440 3.571310 12.994500 -0.242716 -4.980390 92.710700 -7.253940 -69.446200 -5.348130 -0.000001 -0.000004 -54.035500 -58.525000 -87.105100 -24.328900 0.000322 -0.000009 -6.261480 -2.849220 -65.624000 -22.291500 -0.000108 -0.000004 19.052100 5.456220 -4.863870 -2.192480 -6.469440 -0.000000 -173.320000 -11.116000 -5.080520 39.081100 -0.000007 -0.000012 -0.200606 0.400764 26.591000 40.985400 -0.000006 -0.000013 -0.899168 10.130800 -68.428600 11.754300 -0.000000 0.000003 -0.000263 -0.002328 -16.664600 -2.192510 6.469440 -0.000001 177.780000 27.480900 177.649000 -39.081100 -0.002282 -0.040193 -0.070940 0.156221 25.421500 -40.985400 0.000008 0.000006 6.161670 13.130900 -70.729900 -11.754300 -0.000006 -0.000006 -0.002522 -0.035065 -17.999000
0.000000 0.000000 0.000000 0.000000 0.000000 -0.000000 -2.879450 91.416000 1.482580 88.958300 2.971600 2.979170 15.735700 0.000005 -0.000001 94.849000 85.630000 -97.619600 8.984550 -0.406207 -0.000000 0.970599 0.902640 -5.544510 16.377300 -0.000001 -0.000001 5.517380 -3.231150 2.731310 6.456720 -0.000001 -0.000000 -0.016804 -0.483310 -8.010380 12.994200 -0.242716 4.980390 -91.809100 4.491910 -68.036400 5.348090 -0.000007 -0.000001 -62.550900 26.484500 -11.051800 24.328600 0.000019 0.000005 7.783490 20.086000 -21.703100 22.291600 -0.000001 0.000005 14.072400 5.161660 3.663010 12.994500 -0.242716 -4.980390 91.948800 -5.512380 -70.496900 -5.348130 -0.000001 -0.000004 -50.183300 -55.776000 -77.746600 -24.328900 0.000322 -0.000009 -6.223700 -1.757740 -74.283200 -22.291500 -0.000108 -0.000004 19.623300 5.446860 -4.527750 -2.192480 -6.469440 -0.000000 -173.538000 -11.235900 -5.025310 39.081100 -0.000007 -0.000012 -0.200933 0.399042 26.727300 40.985400 -0.000006 -0.000013 -0.758221 9.842960 -68.573300 11.754300 -0.000000 0.000003 -0.000266 -0.002351 -16.665500 -2.192510 6.469440 -0.000001 177.462000 27.429900 177.621000 -39.081100 -0.002282 -0.040193 -0.085504 0.185726 25.557400 -40.985400 0.000008 0.000006 5.741090 13.561000 -70.624300 -11.754300 -0.000006 -0.000006 -0.002149 -0.030561 -17.815800
0.000000 0.000000 0.000000 0.000000 0.000000 -0.000000 -2.623760 91.402500 1.470540 88.913700 2.430140 3.123110 15.735700 0.000005 -0.000001 94.288000 85.527100 -96.888900 8.984550 -0.406207 -0.000000 1.178740 0.817958 -5.205870 16.377300 -0.000001 -0.000001 5.226550 -2.963840 2.016660 6.456720 -0.000001 -0.000000 0.108811 -0.675463 -7.369020 12.994200 -0.242716 4.980390 -91.828400 4.548790 -68.074800 5.348090 -0.000007 -0.000001 -62.231200 27.356400 -12.156700 24.328600 0.000019 0.000005 7.532920 19.951100 -21.183400 22.291600 -0.000001 0.000005 13.873800 5.157810 3.756000 12.994500 -0.242716 -4.980390 91.112700 -3.482000 -72.269300 -5.348130 -0.000001 -0.000004 -45.303600 -52.697400 -66.432800 -24.328900 0.000322 -0.000009 -6.918340 -0.843741 -83.074000 -22.291500 -0.000108 -0.000004 20.270300 5.443760 -4.417050 -2.192480 -6.469440 -0.000000 -173.648000 -11.472900 -4.866640 39.081100 -0.000007 -0.000012 -0.198258 0.390805 26.899300 40.985400 -0.000006 -0.000013 -0.622713 9.527510 -68.750000 11.754300 -0.000000 0.000003 -0.000264 -0.002339 -16.665100 -2.192510 6.469440 -0.000001 177.246000 27.158500 177.675000 -39.081100 -0.002282 -0.040193 -0.086958 0.187693 25.684700 -40.985400 0.000008 0.000006 5.677340 13.889300 -70.607100 -11.754300 -0.000006 -0.000006 -0.002256 -0.031877 -17.869300
